<!-- <svg width="354" height="199" viewBox="0 0 354 199" fill="none"
xmlns="http://www.w3.org/2000/svg"> -->
<svg width="354" height="354" viewBox="0 -77.5 354 354" fill="none"
    xmlns="http://www.w3.org/2000/svg">
    <g clip-path="url(#clip0)">
        <path
            d="M115.378 153.396H115.119L101.291 110.901H68.0171V199.086H96.3647L95.6733 154.173H95.9326L112.181 199.086H143.035V110.901H114.773L115.378 153.396Z"
            fill="#000101" />
        <path
            d="M115.378 56.8327H115.119L101.291 14.3379H67.9307V102.523H96.2783L95.5869 57.61H95.8462L112.094 102.523H142.948V14.3379H114.687L115.378 56.8327Z"
            fill="#000101" />
        <path
            d="M62.1401 72.8975C59.2017 74.625 55.8311 75.6614 52.2012 75.6614C41.5708 75.6614 32.9282 69.0972 32.9282 58.3871C32.9282 47.677 41.5708 39.1262 52.2012 39.1262C55.8311 39.1262 59.2017 40.1627 62.1401 41.8901V15.2013C57.1274 13.3012 51.6826 12.3511 46.0649 12.3511C20.6558 12.3511 0 32.9075 0 58.3871C0 83.8667 20.6558 104.423 46.0649 104.423C51.6826 104.423 57.1274 103.387 62.1401 101.573V72.8975Z"
            fill="black" />
        <path
            d="M220.386 154.95C220.386 130.939 205.002 110.901 177.346 110.901H148.825V199.086H177.346C205.866 199 220.386 178.962 220.386 154.95ZM176.568 175.507V135.776C183.482 135.776 190.828 137.071 190.828 154.95C190.828 175.075 183.136 175.507 176.568 175.507Z"
            fill="black" />
        <path
            d="M220.299 58.3874C220.299 34.3761 204.916 14.3379 177.259 14.3379H148.739V102.523H177.259C205.866 102.437 220.299 82.3987 220.299 58.3874ZM176.568 78.9438V39.2129C183.482 39.2129 190.828 40.5085 190.828 58.3874C190.828 78.5119 183.05 78.9438 176.568 78.9438Z"
            fill="black" />
        <path
            d="M195.495 80.0664V141.39L250.462 89.1354L249.511 198.914H299.638V88.9627L354 141.39V79.8073L275.353 0L195.495 80.0664Z"
            fill="#1E43F5" />
        <path d="M11.4082 199H61.708V173.607H39.7559V110.901H11.4082V199Z" fill="#000101" />
    </g>
    <defs>
        <clipPath id="clip0">
            <rect width="354" height="199" fill="white" />
        </clipPath>
    </defs>
</svg>