<svg version="1.1" id="Layer_1" xmlns="http://www.w3.org/2000/svg"
	xmlns:xlink="http://www.w3.org/1999/xlink" x="0px" y="0px"
	viewBox="0 0 136.6 44.1" style="enable-background:new 0 0 136.6 44.1;" xml:space="preserve">
<style type="text/css">
	.st0{fill:#032A3E;}
	.st2{fill:#FFFFFF;}
	.st4{filter:url(#Adobe_OpacityMaskFilter_1_);}
	.st5{mask:url(#mask-4_1_);fill:#032A3E;}
</style>
<title>Toronto City Hall</title>
<desc>Toronto City Hall</desc>
<g id="Symbols">
	<g id="Artboard-1" transform="translate(-12.000000, -4.000000)">
		<g id="Group" transform="translate(12.000000, 4.000000)">
				<!-- BOTTOM BORDER -->
			<g id="Group-18" transform="translate(0.000000, 39.742492)">
				<g id="Clip-17">
				</g>
				<defs>
					<filter id="Adobe_OpacityMaskFilter_1_" filterUnits="userSpaceOnUse" x="0.6" y="1.2" width="34.5" height="2.5">
						<feColorMatrix  type="matrix" values="1 0 0 0 0  0 1 0 0 0  0 0 1 0 0  0 0 0 1 0"/>
					</filter>
				</defs>
				<mask maskUnits="userSpaceOnUse" x="0.6" y="1.2" width="34.5" height="2.5" id="mask-4_1_">
					<g class="st4">
						<polygon id="path-3_1_" class="st2" points="0.6,1.2 35.2,1.2 35.2,3.6 0.6,3.6 						"/>
					</g>
				</mask>
				<path id="Fill-16" class="st5" d="M35.2,3.6V3.5C31,1.6,28.1,1.2,22.7,1.2H0.6v1.5h29.8C32.4,2.7,33.9,3.2,35.2,3.6"/>
			</g>
				<!-- BOTTOM BORDER -->
			<path id="Fill-19" class="st0" d="M26.4,1.9l-0.9-0.8c-0.5-0.2-0.9,0.2-0.9,0.2l-1.2,0.6v6.5c-1.2,2.5-4.1,3.7-4.3,3.9
				c-0.5,0.3-0.6,0.6-0.6,1.1v24.2c-0.9,0.2-2.3,0.3-2.3,0.3V17.1c0-0.8-0.3-0.9-1.1-1.1c-0.9-0.3-2.5-0.5-7.7-2.6V9.1L6.3,8.7
				c0,0-0.6-0.3-1.1-0.2C4.8,8.7,4.2,9.1,3.9,9.3c-1.2,0.9-3.2,2.6-3.2,5.6V40h2.1V14.8c0-2.2,1.4-3.2,2.1-3.7h0.3V40h2.1V15.8
				c1.7,0.8,2.8,1.2,4.8,1.7c0.6,0.3,1.4,0.5,1.8,0.5v20.2c-2.5,0.5-4.5,1.1-6.3,1.8H12c3.2-1.4,6.9-2.2,10.7-2.2
				c-0.6-0.2-1.4-0.2-2-0.2V13.9l0.2-0.2c0.6-0.3,1.5-0.9,2.5-1.9V40c0.5,0.2,1.5,0,2.3,0.2V4.5h0.2c1.1,1.4,2.1,3.4,2.1,6.3v29.5
				c0.8,0,1.5,0.2,2.3,0.3V10.8C30.1,6.2,27.6,3.4,26.4,1.9"/>
		</g>
	</g>
</g>
</svg>